<svg width="10" height="12" viewBox="0 0 10 12" fill="none" xmlns="http://www.w3.org/2000/svg">
<g opacity="0.7">
<path d="M1.64062 10.3258C1.34375 10.5109 0.928125 10.5531 0.575 10.4289C0.221875 10.3047 0 10.0398 0 9.74919V2.24919C0 1.95856 0.225 1.69372 0.575 1.5695C0.925 1.44528 1.34063 1.48513 1.64062 1.67263L7.64062 5.42263L8 5.64763V2.24919C8 1.83435 8.44687 1.49919 9 1.49919C9.55313 1.49919 10 1.83435 10 2.24919V9.74919C10 10.164 9.55313 10.4992 9 10.4992C8.44687 10.4992 8 10.164 8 9.74919V6.35075L7.64062 6.57575L1.64062 10.3258Z" fill="#328E6E"/>
</g>
</svg>
