<svg width="10" height="12" viewBox="0 0 10 12" fill="none" xmlns="http://www.w3.org/2000/svg">
<g opacity="0.7">
<path d="M8.35938 10.3258C8.65625 10.5109 9.07187 10.5531 9.425 10.4289C9.77813 10.3047 10 10.0398 10 9.74919V2.24919C10 1.95856 9.775 1.69372 9.425 1.5695C9.075 1.44528 8.65937 1.48513 8.35938 1.67263L2.35938 5.42263L2 5.64763V2.24919C2 1.83435 1.55313 1.49919 1 1.49919C0.446875 1.49919 0 1.83435 0 2.24919V9.74919C0 10.164 0.446875 10.4992 1 10.4992C1.55313 10.4992 2 10.164 2 9.74919V6.35075L2.35938 6.57575L8.35938 10.3258Z" fill="#328E6E"/>
</g>
</svg>
